<?xml version="1.0" encoding="UTF-8"?><svg id="Camada_2" xmlns="http://www.w3.org/2000/svg" viewBox="0 0 290.23 105.56"><defs><style>.cls-1{fill:#575756;}.cls-2{fill:#9d9d9c;}.cls-3{fill:#004899;}.cls-4{fill:#b70e0c;}</style></defs><g id="Camada_1-2"><path class="cls-1" d="m117.39,61.54l-8.35-29.09c-1.44-4.9-5.18-4.1-5.18-6.7,0-2.74,4.68-4.46,7.99-4.46,4.9,0,8.14,2.09,9.79,8.28l6.12,23.47c.22,1.01.65,1.58,1.44,1.58.65,0,1.08-.43,1.58-1.01,2.66-3.74,5.62-10.08,5.62-14.4,0-7.42-6.12-8.35-6.12-11.88,0-2.74,3.74-7.34,7.92-7.34,3.53,0,7.34,4.46,7.34,13.54,0,9.86-6.26,21.53-12.17,29.09-2.09,2.45-4.9,3.82-8.71,3.82-4.1,0-6.34-1.58-7.27-4.9Z"/><path class="cls-1" d="m147.62,49.3c0-10.44,7.13-17.5,18-17.5,9.72,0,14.47,4.46,14.47,10.44,0,6.34-5.54,10.37-18.22,10.37-.86,0-1.22.36-1.22.94,0,3.1,2.66,4.82,6.62,4.82,5.33,0,7.92-2.95,10.01-2.95,1.15,0,1.87.65,1.87,1.87,0,3.31-4.75,9.22-14.91,9.22s-16.63-6.55-16.63-17.21Zm20.16-6.91c0-3.46-.86-5.04-2.95-5.04-2.52,0-4.32,2.38-4.32,7.99,0,2.02.5,2.52,1.51,2.52,3.96,0,5.76-1.73,5.76-5.47Z"/><path class="cls-1" d="m185.06,62.41c0-1.94,1.08-8.86,1.08-16.56s-3.89-6.34-3.89-8.86c0-3.17,6.05-4.75,9.94-4.75,5.76,0,3.38,4.9,4.9,4.9s3.67-5.33,11.16-5.33,9.79,6.05,9.79,12.02c0,2.88-.72,8.86-.72,10.94,0,5.26,4.03,3.74,4.03,6.26,0,2.74-3.67,5.18-8.28,5.18-5.11,0-8.14-2.88-8.14-8.79,0-3.74.65-10.22.65-12.89,0-2.81-.43-5.04-2.45-5.04-2.59,0-4.9,3.6-4.9,17.57v5.04c0,2.38-1.22,3.89-6.91,3.89-4.54,0-6.26-1.51-6.26-3.6Z"/><path class="cls-3" d="m254.68,57.65l-2.95-6.41c-.22-.43-.36-.86-.86-.86s-.72.36-.94.86l-5.76,11.38c-.94,1.94-1.8,3.1-5.9,3.1s-5.18-1.22-5.18-2.45c0-1.08.5-1.66,1.15-2.74l10.44-15.91c.29-.36.5-.79.5-1.44,0-.72-.22-1.08-.5-1.51l-6.12-10.08c-1.51-2.52-3.24-3.89-5.62-3.89s-4.25,1.37-4.25,3.67c0,1.66,1.15,2.59,2.09,3.46,1.01.94,1.73,1.66,1.73,2.81,0,1.87-2.59,3.96-6.62,3.96-4.82,0-8.5-3.53-8.5-8.5,0-7.06,7.63-12.24,23.33-12.02,5.54.07,7.85,1.94,9.43,5.33l4.18,8.71c.22.43.36.86.86.86s.72-.36.94-.86l5.54-10.44c1.22-2.23,1.94-3.17,5.9-3.17s4.9,1.22,4.9,2.45c0,1.08-.5,1.73-1.15,2.81l-10.08,14.91c-.22.36-.43.65-.43,1.44,0,.65.22,1.08.43,1.44l5.4,8.64c1.66,2.81,2.59,3.74,3.96,3.82.14.07.29.14.5.14,1.3,0,2.16.94,2.16,2.3,0,2.23-2.16,7.27-7.99,7.27s-7.99-3.46-10.58-9.07Z"/><path class="cls-4" d="m274.07,38.19c0-1.58,1.04-3.64,2.3-3.64,1.84,0,2.92,3.6,5.18,3.6,1.91,0,2.41-.97,2.41-3.56v-1.91c0-.29-.07-.47-.32-.47-.54,0-1.51,1.55-4.32,1.55-3.92,0-5.33-2.66-5.33-5.36,0-1.73.25-2.99.25-4.28,0-3.24-1.73-2.38-1.73-3.74s2.3-2.41,4.5-2.41,3.46,1.37,3.46,4c0,2.27-.25,4.82-.25,6.05,0,1.3.22,2.34,1.22,2.34,1.33,0,2.27-2.05,2.27-6.26,0-1.98-.07-3.06-.07-4.18s.54-1.91,3.42-1.91c2.3,0,3.17.76,3.17,1.76s-.47,3.49-.47,7.74v6.08c0,3.53-1.55,7.67-8.67,7.67-3.24,0-7.02-1.37-7.02-3.06Z"/><rect class="cls-2" width="85.63" height="85.63" rx="12" ry="12"/><path class="cls-3" d="m42.95,57.65l-2.95-6.41c-.22-.43-.36-.86-.86-.86s-.72.36-.94.86l-5.76,11.38c-.94,1.94-1.8,3.1-5.9,3.1s-5.18-1.22-5.18-2.45c0-1.08.5-1.66,1.15-2.74l10.44-15.91c.29-.36.5-.79.5-1.44,0-.72-.22-1.08-.5-1.51l-6.12-10.08c-1.51-2.52-3.24-3.89-5.62-3.89s-4.25,1.37-4.25,3.67c0,1.66,1.15,2.59,2.09,3.46,1.01.94,1.73,1.66,1.73,2.81,0,1.87-2.59,3.96-6.62,3.96-4.82,0-8.5-3.53-8.5-8.5,0-7.06,7.63-12.24,23.33-12.02,5.54.07,7.85,1.94,9.43,5.33l4.18,8.71c.22.43.36.86.86.86s.72-.36.94-.86l5.54-10.44c1.22-2.23,1.94-3.17,5.9-3.17s4.9,1.22,4.9,2.45c0,1.08-.5,1.73-1.15,2.81l-10.08,14.91c-.22.36-.43.65-.43,1.44,0,.65.22,1.08.43,1.44l5.4,8.64c1.66,2.81,2.59,3.74,3.96,3.82.14.07.29.14.5.14,1.3,0,2.16.94,2.16,2.3,0,2.23-2.16,7.27-7.99,7.27s-7.99-3.46-10.58-9.07Z"/><path class="cls-4" d="m62.34,38.19c0-1.58,1.04-3.64,2.3-3.64,1.84,0,2.92,3.6,5.18,3.6,1.91,0,2.41-.97,2.41-3.56v-1.91c0-.29-.07-.47-.32-.47-.54,0-1.51,1.55-4.32,1.55-3.92,0-5.33-2.66-5.33-5.36,0-1.73.25-2.99.25-4.28,0-3.24-1.73-2.38-1.73-3.74s2.3-2.41,4.5-2.41,3.46,1.37,3.46,4c0,2.27-.25,4.82-.25,6.05,0,1.3.22,2.34,1.22,2.34,1.33,0,2.27-2.05,2.27-6.26,0-1.98-.07-3.06-.07-4.18s.54-1.91,3.42-1.91c2.3,0,3.17.76,3.17,1.76s-.47,3.49-.47,7.74v6.08c0,3.53-1.55,7.67-8.67,7.67-3.24,0-7.02-1.37-7.02-3.06Z"/><path class="cls-4" d="m9.73,104.53c0-.46.21-3.45.21-6.05v-4.39c0-1.54-1.08-1.24-1.08-1.93,0-.46.69-1.06,4.21-1.06h.6c4.07,0,6.44,1.91,6.44,4.71s-2.3,4.76-6.65,4.76c-.41,0-.51.14-.51.41v3.54c0,.48-.37.85-1.54.85-1.29,0-1.68-.37-1.68-.85Zm7.2-8.78c0-2.48-1.93-3.15-3.08-3.15h-.46c-.44,0-.53.09-.53.41,0,.28.05.57.05,1.06v4.6c0,.3.09.41.55.41,2.02,0,3.47-.99,3.47-3.33Z"/><path class="cls-4" d="m20.93,100.09c0-3.36,2.02-5.45,5.17-5.45s5.17,2.07,5.17,5.43-2.02,5.45-5.17,5.45-5.17-2.07-5.17-5.43Zm7.24-.02c0-2.78-.71-4.02-2.07-4.02s-2.07,1.24-2.07,4.02.71,4.05,2.07,4.05,2.07-1.29,2.07-4.05Z"/><path class="cls-4" d="m33.86,102.11v-5.2c0-.25-.09-.39-.48-.39-.64,0-.99-.05-.99-.64,0-.44.25-.46.97-.78.85-.41,1.26-.94,1.7-1.68.32-.78.55-1.13,1.1-1.13h.21c.28,0,.41.14.41.39v1.86c0,.25.14.39.39.39.74,0,1.59-.02,2.18-.02.37,0,.48.23.48.67,0,.6-.3.94-.69.94h-1.98c-.25,0-.39.14-.39.39v5.13c0,.97.44,1.4,1.13,1.4.76,0,1.13-.44,1.49-.44.3,0,.44.16.44.46,0,.53-.87,2.02-3.06,2.02s-2.92-1.49-2.92-3.38Z"/><path class="cls-4" d="m40.51,100.2c0-3.38,2.16-5.59,5.36-5.59,2.81,0,4.14,1.38,4.14,3.1,0,2.07-1.98,3.31-6.16,3.31-.18,0-.28.07-.28.21,0,1.52,1.1,2.32,2.51,2.32,1.86,0,2.62-1.1,3.2-1.1.3,0,.46.16.46.46,0,.9-1.49,2.6-4.37,2.6s-4.85-2.05-4.85-5.31Zm6.53-2.44c0-1.1-.39-1.77-1.4-1.77-1.22,0-2.12,1.15-2.12,3.24,0,.46.14.57.37.57,2.32,0,3.15-.76,3.15-2.05Z"/><path class="cls-4" d="m52.07,104.5c0-.48.28-3.08.28-5.52,0-2.97-1.38-2.39-1.38-3.08,0-.76,1.54-1.17,2.37-1.17,1.72,0,1.24,1.84,1.61,1.84s1.06-1.95,3.5-1.95c2.28,0,3.08,1.84,3.08,3.56,0,1.13-.28,2.81-.28,3.79,0,2.14,1.4,1.52,1.4,2.21s-.94,1.26-2.02,1.26c-1.33,0-2.23-.85-2.23-2.83,0-1.38.23-3.27.23-4.35s-.37-1.84-1.2-1.84c-1.2,0-2.28,1.43-2.28,5.56v2.44c0,.57-.3.92-1.61.92-1.06,0-1.47-.34-1.47-.85Z"/><path class="cls-4" d="m63.73,100.07c0-3.54,2.39-5.45,5.13-5.45s4.07,1.59,4.07,2.28c0,.76-.64,2.05-1.24,2.05-1.06,0-1.29-2.92-2.83-2.92-1.31,0-2.09,1.77-2.09,3.77,0,2.14.94,3.75,2.64,3.75s2.25-1.4,2.97-1.4c.3,0,.46.16.46.46,0,1.13-1.63,2.97-4.05,2.97-2.74,0-5.06-1.95-5.06-5.5Z"/><path class="cls-4" d="m74.8,102.62c0-1.15.16-2.64.16-3.84,0-2.81-1.06-2.21-1.06-2.87,0-.74,1.38-1.13,2.39-1.13,1.24,0,1.61.76,1.61,2.16,0,1.29-.21,4.12-.21,5.15,0,2.02,1.43,1.36,1.43,2.12,0,.67-.97,1.24-2.12,1.24-1.31,0-2.21-.83-2.21-2.83Zm-.23-10.88c0-.83.76-1.52,1.75-1.52.92,0,1.72.69,1.72,1.54s-.78,1.52-1.72,1.52-1.75-.71-1.75-1.54Z"/><path class="cls-4" d="m80.27,100.04c0-3.2,1.95-5.43,4.37-5.43,2,0,2.71,1.33,2.99,1.33.3,0,.99-1.29,1.77-1.29.6,0,.85.39.85,1.03,0,.69-.32,3.24-.32,4.99,0,3.59,1.38,2.78,1.38,3.52s-1.33,1.2-2.18,1.2c-1.68,0-1.24-1.89-1.59-1.89-.37,0-1.01,1.91-3.4,1.91s-3.86-2.16-3.86-5.38Zm6.78-.55c0-1.72-.48-3.38-1.77-3.38s-2,1.75-2,3.89.6,3.66,1.79,3.66c1.26,0,1.98-1.75,1.98-4.16Z"/><path class="cls-4" d="m92.97,102.62c0-2.3.18-7.34.18-9.31s-1.03-1.43-1.03-2.12,1.43-1.01,2.39-1.01c1.08,0,1.56.64,1.56,2.05,0,1.7-.21,8.67-.21,9.86,0,2.02,1.4,1.36,1.4,2.12,0,.67-.99,1.24-2.07,1.24-1.33,0-2.23-.83-2.23-2.83Z"/><path class="cls-4" d="m98.99,102.62c0-1.15.16-2.64.16-3.84,0-2.81-1.06-2.21-1.06-2.87,0-.74,1.38-1.13,2.39-1.13,1.24,0,1.61.76,1.61,2.16,0,1.29-.21,4.12-.21,5.15,0,2.02,1.43,1.36,1.43,2.12,0,.67-.97,1.24-2.12,1.24-1.31,0-2.21-.83-2.21-2.83Zm-.23-10.88c0-.83.76-1.52,1.75-1.52.92,0,1.72.69,1.72,1.54s-.78,1.52-1.72,1.52-1.75-.71-1.75-1.54Z"/><path class="cls-4" d="m107.11,104.83c-.9,0-1.26.41-1.91.41-.41,0-.9-.3-.9-1.06,0-1.06.34-2.05,2.05-3.13l4.23-3.4c.14-.09.23-.16.23-.25,0-.07-.07-.11-.25-.11h-3.43c-1.36,0-1.26.76-1.79.76s-.94-.76-.94-1.59c0-.87.64-1.79,2.25-1.79s2.78.6,3.7.6,1.33-.44,1.95-.44c.37,0,.9.3.9,1.4,0,1.38-.67,2.07-2,2.9l-4.05,3.31c-.09.05-.21.11-.21.23,0,.07.07.14.23.14h3.4c1.63,0,1.56-.9,2.14-.9.46,0,.74.67.74,1.43,0,1.17-.8,2.23-2.46,2.23-1.56,0-2.97-.74-3.89-.74Z"/><path class="cls-4" d="m114.73,100.04c0-3.2,1.95-5.43,4.37-5.43,2,0,2.71,1.33,2.99,1.33.3,0,.99-1.29,1.77-1.29.6,0,.85.39.85,1.03,0,.69-.32,3.24-.32,4.99,0,3.59,1.38,2.78,1.38,3.52s-1.33,1.2-2.18,1.2c-1.68,0-1.24-1.89-1.59-1.89-.37,0-1.01,1.91-3.4,1.91s-3.86-2.16-3.86-5.38Zm6.78-.55c0-1.72-.48-3.38-1.77-3.38s-2,1.75-2,3.89.6,3.66,1.79,3.66c1.26,0,1.98-1.75,1.98-4.16Z"/><path class="cls-4" d="m127.44,104.5c0-.48.28-3.08.28-5.52,0-2.97-1.38-2.39-1.38-3.08,0-.76,1.54-1.17,2.37-1.17,1.72,0,1.24,1.84,1.61,1.84s1.06-1.95,3.5-1.95c2.28,0,3.08,1.84,3.08,3.56,0,1.13-.28,2.81-.28,3.79,0,2.14,1.4,1.52,1.4,2.21s-.94,1.26-2.02,1.26c-1.33,0-2.23-.85-2.23-2.83,0-1.38.23-3.27.23-4.35s-.37-1.84-1.2-1.84c-1.2,0-2.28,1.43-2.28,5.56v2.44c0,.57-.3.92-1.61.92-1.06,0-1.47-.34-1.47-.85Z"/><path class="cls-4" d="m139.11,100.04c0-3.2,1.95-5.43,4.25-5.43,1.82,0,2.32,1.1,2.58,1.1.09,0,.14-.28.14-.48v-2.09c0-1.61-1.06-1.31-1.06-1.95s1.45-1.01,2.41-1.01c1.08,0,1.56.67,1.56,2.05,0,1.95-.16,5.66-.16,8.51,0,3.54,1.38,2.74,1.38,3.47s-1.33,1.2-2.18,1.2c-1.68,0-1.22-1.89-1.59-1.89s-1.01,1.91-3.4,1.91c-2.55,0-3.93-2.16-3.93-5.38Zm6.85-.23c0-2.07-.67-3.63-1.89-3.63s-1.95,1.52-1.95,3.79.62,3.68,1.84,3.68,2-1.56,2-3.84Z"/><path class="cls-4" d="m151.25,100.09c0-3.36,2.02-5.45,5.17-5.45s5.17,2.07,5.17,5.43-2.02,5.45-5.17,5.45-5.17-2.07-5.17-5.43Zm7.24-.02c0-2.78-.71-4.02-2.07-4.02s-2.07,1.24-2.07,4.02.71,4.05,2.07,4.05,2.07-1.29,2.07-4.05Z"/><path class="cls-4" d="m166.75,103.63c0-.6.51-1.93,1.08-1.93.9,0,1.31,2.39,3.52,2.39.76,0,1.33-.39,1.33-1.08s-.48-1.2-2.46-1.98c-1.98-.76-3.27-1.77-3.27-3.38s1.33-3.01,4.16-3.01c2.25,0,4.12.8,4.12,1.49s-.55,2.02-1.08,2.02c-.8,0-1.03-2.14-3.08-2.14-.83,0-1.4.32-1.4.99s.44,1.06,2.53,1.89c2.02.78,3.27,1.79,3.27,3.5s-1.36,3.1-4.39,3.1c-2.48,0-4.32-1.17-4.32-1.86Z"/><path class="cls-4" d="m177.65,101.86c0-1.17.16-2.25.16-3.61,0-2.18-1.06-1.66-1.06-2.35s1.29-1.13,2.28-1.13c1.06,0,1.7.78,1.7,2.39s-.18,3.47-.18,4.6.39,1.89,1.2,1.89c1.2,0,2.12-1.45,2.12-4.48,0-1.54-.09-2.48-.09-3.45,0-.57.3-.94,1.61-.94,1.06,0,1.49.37,1.49.87s-.16,2.99-.16,5.45c0,2.94,1.38,2.37,1.38,3.06,0,.76-1.38,1.17-2.21,1.17-1.72,0-1.24-1.82-1.61-1.82s-1.1,1.95-3.54,1.95c-2.28,0-3.08-1.84-3.08-3.61Z"/><path class="cls-4" d="m189.2,100.04c0-3.2,1.95-5.43,4.37-5.43,2,0,2.71,1.33,2.99,1.33.3,0,.99-1.29,1.77-1.29.6,0,.85.39.85,1.03,0,.69-.32,3.24-.32,4.99,0,3.59,1.38,2.78,1.38,3.52s-1.33,1.2-2.18,1.2c-1.68,0-1.24-1.89-1.59-1.89-.37,0-1.01,1.91-3.4,1.91s-3.86-2.16-3.86-5.38Zm6.78-.55c0-1.72-.48-3.38-1.77-3.38s-2,1.75-2,3.89.6,3.66,1.79,3.66c1.26,0,1.98-1.75,1.98-4.16Z"/><path class="cls-4" d="m201.3,103.63c0-.6.51-1.93,1.08-1.93.9,0,1.31,2.39,3.52,2.39.76,0,1.33-.39,1.33-1.08s-.48-1.2-2.46-1.98c-1.98-.76-3.27-1.77-3.27-3.38s1.33-3.01,4.16-3.01c2.25,0,4.12.8,4.12,1.49s-.55,2.02-1.08,2.02c-.8,0-1.03-2.14-3.08-2.14-.83,0-1.4.32-1.4.99s.44,1.06,2.53,1.89c2.02.78,3.27,1.79,3.27,3.5s-1.36,3.1-4.39,3.1c-2.48,0-4.32-1.17-4.32-1.86Z"/><path class="cls-4" d="m215.44,99.74c0-3.33.18-4.28.41-4.58.21-.32.69-.46,1.38-.46,1.15,0,1.56.37,1.56.87,0,.55-.37,2.23-.37,4.46s.55,3.61,1.98,3.61,2.23-1.4,2.23-3.24c0-2.85-1.98-3.27-1.98-4.09,0-.58.9-1.86,1.7-1.86.9,0,2.41,1.82,2.41,5.13s-1.89,5.89-4.92,5.89-4.42-2.07-4.42-5.73Z"/><path class="cls-4" d="m226.46,100.2c0-3.38,2.16-5.59,5.36-5.59,2.81,0,4.14,1.38,4.14,3.1,0,2.07-1.98,3.31-6.16,3.31-.18,0-.28.07-.28.21,0,1.52,1.1,2.32,2.51,2.32,1.86,0,2.62-1.1,3.2-1.1.3,0,.46.16.46.46,0,.9-1.49,2.6-4.37,2.6s-4.85-2.05-4.85-5.31Zm6.53-2.44c0-1.1-.39-1.77-1.4-1.77-1.22,0-2.12,1.15-2.12,3.24,0,.46.14.57.37.57,2.32,0,3.15-.76,3.15-2.05Z"/><path class="cls-4" d="m238.03,104.5c0-.48.28-3.08.28-5.52,0-2.97-1.38-2.39-1.38-3.08,0-.76,1.54-1.17,2.37-1.17,1.72,0,1.24,1.84,1.61,1.84s1.06-1.95,3.5-1.95c2.28,0,3.08,1.84,3.08,3.56,0,1.13-.28,2.81-.28,3.79,0,2.14,1.4,1.52,1.4,2.21s-.94,1.26-2.02,1.26c-1.33,0-2.23-.85-2.23-2.83,0-1.38.23-3.27.23-4.35s-.37-1.84-1.2-1.84c-1.2,0-2.28,1.43-2.28,5.56v2.44c0,.57-.3.92-1.61.92-1.06,0-1.47-.34-1.47-.85Z"/><path class="cls-4" d="m249.69,100.04c0-3.2,1.95-5.43,4.25-5.43,1.82,0,2.32,1.1,2.58,1.1.09,0,.14-.28.14-.48v-2.09c0-1.61-1.06-1.31-1.06-1.95s1.45-1.01,2.41-1.01c1.08,0,1.56.67,1.56,2.05,0,1.95-.16,5.66-.16,8.51,0,3.54,1.38,2.74,1.38,3.47s-1.33,1.2-2.18,1.2c-1.68,0-1.22-1.89-1.59-1.89s-1.01,1.91-3.4,1.91c-2.55,0-3.93-2.16-3.93-5.38Zm6.85-.23c0-2.07-.67-3.63-1.89-3.63s-1.95,1.52-1.95,3.79.62,3.68,1.84,3.68,2-1.56,2-3.84Z"/><path class="cls-4" d="m261.83,100.04c0-3.2,1.95-5.43,4.37-5.43,2,0,2.71,1.33,2.99,1.33.3,0,.99-1.29,1.77-1.29.6,0,.85.39.85,1.03,0,.69-.32,3.24-.32,4.99,0,3.59,1.38,2.78,1.38,3.52s-1.33,1.2-2.18,1.2c-1.68,0-1.24-1.89-1.59-1.89-.37,0-1.01,1.91-3.4,1.91s-3.86-2.16-3.86-5.38Zm6.78-.55c0-1.72-.48-3.38-1.77-3.38s-2,1.75-2,3.89.6,3.66,1.79,3.66c1.26,0,1.98-1.75,1.98-4.16Z"/><path class="cls-4" d="m273.93,103.63c0-.6.51-1.93,1.08-1.93.9,0,1.31,2.39,3.52,2.39.76,0,1.33-.39,1.33-1.08s-.48-1.2-2.46-1.98c-1.98-.76-3.27-1.77-3.27-3.38s1.33-3.01,4.16-3.01c2.25,0,4.12.8,4.12,1.49s-.55,2.02-1.08,2.02c-.8,0-1.03-2.14-3.08-2.14-.83,0-1.4.32-1.4.99s.44,1.06,2.53,1.89c2.02.78,3.27,1.79,3.27,3.5s-1.36,3.1-4.39,3.1c-2.48,0-4.32-1.17-4.32-1.86Z"/></g></svg>